<svg width="32" height="32" viewBox="0 0 32 32" fill="none" xmlns="http://www.w3.org/2000/svg">
  <!-- Background circle -->
  <circle cx="16" cy="16" r="16" fill="#3B82F6"/>
  
  <!-- Quantum Budget Logo -->
  <g transform="translate(8, 8)">
    <!-- Q letter -->
    <path d="M8 0C3.58 0 0 3.58 0 8s3.58 8 8 8c1.5 0 2.9-.4 4.1-1.1l-1.4-1.4C9.8 14.2 8.9 14.4 8 14.4c-3.5 0-6.4-2.9-6.4-6.4S4.5 1.6 8 1.6s6.4 2.9 6.4 6.4c0 .9-.2 1.8-.5 2.6l1.4 1.4C15.6 10.9 16 9.5 16 8c0-4.42-3.58-8-8-8z" fill="white"/>
    <path d="M12 8l-4 4-2-2" stroke="white" stroke-width="1.5" stroke-linecap="round" stroke-linejoin="round"/>
    
    <!-- Budget symbol -->
    <circle cx="12" cy="4" r="1.5" fill="white"/>
  </g>
</svg>
