<svg width="32" height="32" viewBox="0 0 32 32" fill="none" xmlns="http://www.w3.org/2000/svg">
  <defs>
    <linearGradient id="quantumGradient" x1="0%" y1="0%" x2="100%" y2="100%">
      <stop offset="0%" style="stop-color:#3B82F6;stop-opacity:1" />
      <stop offset="100%" style="stop-color:#8B5CF6;stop-opacity:1" />
    </linearGradient>
  </defs>
  
  <!-- Quantum Q - Main circular ribbon -->
  <path d="M16 4C9.373 4 4 9.373 4 16s5.373 12 12 12c2.5 0 4.8-.8 6.7-2.1L20 24c-1.8 1.2-4 1.8-6.2 1.8-5.5 0-10-4.5-10-10S8.3 6 13.8 6c2.2 0 4.4.6 6.2 1.8l2.7-2.1C20.8 4.8 18.5 4 16 4z" 
        fill="url(#quantumGradient)" />
  
  <!-- Q Tail/Arrow pointing down-right -->
  <path d="M22 20L28 26L26 28L20 22L22 20z" 
        fill="url(#quantumGradient)" />
  
  <!-- Main white dot (top-right of circle) -->
  <circle cx="20" cy="12" r="2" fill="#FFFFFF" opacity="0.9" />
  
  <!-- First smaller dot (middle) -->
  <circle cx="22" cy="16" r="1.5" fill="#FFFFFF" opacity="0.7" />
  
  <!-- Second smaller dot (bottom) -->
  <circle cx="24" cy="20" r="1" fill="#FFFFFF" opacity="0.5" />
</svg>